<?xml version="1.0" encoding="utf-8"?>
<!-- Generator: Adobe Illustrator 16.0.0, SVG Export Plug-In . SVG Version: 6.00 Build 0)  -->
<!DOCTYPE svg PUBLIC "-//W3C//DTD SVG 1.1//EN" "http://www.w3.org/Graphics/SVG/1.1/DTD/svg11.dtd">
<svg version="1.1" id="Layer_1" xmlns="http://www.w3.org/2000/svg" xmlns:xlink="http://www.w3.org/1999/xlink" x="0px" y="0px"
	 width="30.4px" height="29.5px" viewBox="0 0 30.4 29.5" enable-background="new 0 0 30.4 29.5" xml:space="preserve">
<g>
	<polygon fill="#fff" points="16.177,29.354 16.177,0.084 17.42,0.084 17.42,2.185 19.135,0.44 20.023,1.327 17.361,3.961 
		17.361,5.5 19.846,3.044 20.824,4.02 17.42,7.425 17.42,13.076 22.213,10.325 23.576,5.471 24.76,5.974 23.811,9.436 25.262,8.637 
		26.357,4.731 27.6,5.234 26.918,7.542 28.785,6.566 29.643,8.134 27.721,9.199 30.234,9.881 29.908,11.065 26.18,10.059 
		24.67,10.917 28.312,11.982 27.896,13.254 23.162,11.894 18.248,14.793 23.162,17.605 27.955,16.304 28.371,17.397 24.76,18.492 
		26.09,19.382 29.879,18.434 30.295,19.353 27.631,20.091 29.613,21.216 28.727,22.756 26.771,21.72 27.422,24.146 26.357,24.413 
		25.35,20.979 23.752,20.032 24.67,23.643 23.635,23.851 22.242,19.263 17.449,16.333 17.449,22.162 20.793,25.448 20.023,26.306 
		17.42,23.821 17.42,25.685 19.936,28.172 19.135,29 17.42,27.283 17.42,29.354 	"/>
	<g>
		<path fill="#fff" d="M7.326,14.615c0-4.114,3.552-7.457,7.963-7.457c0,4.882,0,9.174,0,14.945
			C10.878,22.074,7.326,18.729,7.326,14.615z"/>
		<g>
			<path fill="#fff" d="M0.105,11.302l3.788,3.433l-3.729,3.196L4.9,19.321l-1.835,4.441l4.825-1.007l0.207,5.326l4.084-3.138
				l3.078,4.439v-5.741c-5.031-0.354-9.56-3.344-9.56-9.057c0.029-5.387,4.558-8.79,9.59-9.115V0.084l-3.138,4.234L8.214,1.535
				L8.156,6.358L2.858,5.322L5.136,10L0.105,11.302z"/>
		</g>
	</g>
</g>
</svg>
