<?xml version="1.0" encoding="utf-8"?>
<!-- Generator: Adobe Illustrator 16.0.0, SVG Export Plug-In . SVG Version: 6.00 Build 0)  -->
<!DOCTYPE svg PUBLIC "-//W3C//DTD SVG 1.1//EN" "http://www.w3.org/Graphics/SVG/1.1/DTD/svg11.dtd">
<svg version="1.1" id="Layer_1" xmlns="http://www.w3.org/2000/svg" xmlns:xlink="http://www.w3.org/1999/xlink" x="0px" y="0px"
	 width="29.45px" height="25.13px" viewBox="0 0 29.45 25.13" enable-background="new 0 0 29.45 25.13" xml:space="preserve">
<g>
	<rect x="4.619" y="12.915" fill="none" width="1.726" height="1.703"/>
	<rect x="4.619" y="15.616" fill="none" width="1.726" height="1.702"/>
	<rect x="4.619" y="10.214" fill="none" width="1.726" height="1.702"/>
	<rect x="4.619" y="7.513" fill="none" width="1.726" height="1.701"/>
	<rect x="11.348" y="10.214" fill="none" width="1.725" height="1.702"/>
	<rect x="11.348" y="15.616" fill="none" width="1.725" height="1.702"/>
	<rect x="11.348" y="7.513" fill="none" width="1.725" height="1.701"/>
	<rect x="11.348" y="12.915" fill="none" width="1.725" height="1.703"/>
	<rect x="7.921" y="7.513" fill="none" width="1.725" height="1.701"/>
	<rect x="7.921" y="10.214" fill="none" width="1.725" height="1.702"/>
	<rect x="4.619" y="4.787" fill="none" width="1.726" height="1.701"/>
	<rect x="7.921" y="2.086" fill="none" width="1.725" height="1.7"/>
	<rect x="7.921" y="4.787" fill="none" width="1.725" height="1.701"/>
	<rect x="4.619" y="2.086" fill="none" width="1.726" height="1.7"/>
	<rect x="7.921" y="15.616" fill="none" width="1.725" height="1.702"/>
	<rect x="7.921" y="12.915" fill="none" width="1.725" height="1.703"/>
	<rect x="11.348" y="4.787" fill="none" width="1.725" height="1.701"/>
	<rect x="23.479" y="19.394" fill="none" width="1.727" height="1.702"/>
	<rect x="19.177" y="18.845" fill="none" width="2.776" height="4.802"/>
	<rect x="23.479" y="16.144" fill="none" width="1.727" height="1.7"/>
	<rect x="15.875" y="9.664" fill="none" width="1.726" height="1.702"/>
	<rect x="11.348" y="2.086" fill="none" width="1.725" height="1.7"/>
	<rect x="23.479" y="12.915" fill="none" width="1.727" height="1.703"/>
	<rect x="23.479" y="9.664" fill="none" width="1.727" height="1.702"/>
	<rect x="19.678" y="12.915" fill="none" width="1.725" height="1.703"/>
	<rect x="19.678" y="16.144" fill="none" width="1.725" height="1.7"/>
	<rect x="19.678" y="9.664" fill="none" width="1.725" height="1.702"/>
	<rect x="15.875" y="19.394" fill="none" width="1.726" height="1.702"/>
	<rect x="15.875" y="16.144" fill="none" width="1.726" height="1.7"/>
	<rect x="15.875" y="12.915" fill="none" width="1.726" height="1.703"/>
	<path fill="#fff" d="M26.429,23.646V7.138H15.701V0.185H2.969v23.486H0.218v1.275h29.015v-1.275h-2.804V23.646z M7.921,2.086
		h1.725v1.7H7.921V2.086z M7.921,4.787h1.725v1.701H7.921V4.787z M7.921,7.513h1.725v1.701H7.921V7.513z M7.921,10.214h1.725v1.702
		H7.921V10.214z M7.921,12.915h1.725v1.703H7.921V12.915z M7.921,15.616h1.725v1.702H7.921V15.616z M4.619,2.086h1.726v1.7H4.619
		V2.086z M4.619,4.787h1.726v1.701H4.619V4.787z M4.619,7.513h1.726v1.701H4.619V7.513z M4.619,10.214h1.726v1.702H4.619V10.214z
		 M4.619,12.915h1.726v1.703H4.619V12.915z M4.619,15.616h1.726v1.702H4.619V15.616z M11.648,23.646H6.22v-4.827h5.428V23.646z
		 M13.049,17.318h-1.727v-1.702h1.727V17.318z M13.049,14.617h-1.727v-1.703h1.727V14.617z M13.049,11.916h-1.727v-1.702h1.727
		V11.916z M13.049,9.214h-1.727V7.513h1.727V9.214z M13.049,6.513h-1.727V4.812h1.727V6.513z M13.049,3.812h-1.727V2.111h1.727
		V3.812z M19.678,9.664h1.725v1.702h-1.725V9.664z M19.678,12.915h1.725v1.703h-1.725V12.915z M19.678,16.144h1.725v1.7h-1.725
		V16.144z M17.601,21.096h-1.726v-1.702h1.726V21.096z M17.601,17.844h-1.726v-1.7h1.726V17.844z M17.601,14.617h-1.726v-1.703
		h1.726V14.617z M17.601,11.391h-1.726V9.689h1.726V11.391z M21.953,23.646h-2.776v-4.802h2.776V23.646z M25.205,21.096h-1.727
		v-1.702h1.727V21.096z M25.205,17.844h-1.727v-1.7h1.727V17.844z M25.205,14.617h-1.727v-1.703h1.727V14.617z M25.205,11.391
		h-1.727V9.689h1.727V11.391z"/>
</g>
</svg>
