<?xml version="1.0" encoding="utf-8"?>
<!-- Generator: Adobe Illustrator 16.0.0, SVG Export Plug-In . SVG Version: 6.00 Build 0)  -->
<!DOCTYPE svg PUBLIC "-//W3C//DTD SVG 1.1//EN" "http://www.w3.org/Graphics/SVG/1.1/DTD/svg11.dtd">
<svg version="1.1" id="Layer_1" xmlns="http://www.w3.org/2000/svg" xmlns:xlink="http://www.w3.org/1999/xlink" x="0px" y="0px"
	 width="24px" height="24px" viewBox="0 0 24 24" enable-background="new 0 0 24 24" xml:space="preserve">
<g>
	<g>
		<path fill="#1b74ff" d="M11.97,1.746c5.638,0,10.229,4.587,10.229,10.224c0,5.638-4.591,10.218-10.229,10.218
			c-5.637,0-10.224-4.58-10.224-10.218C1.746,6.333,6.333,1.746,11.97,1.746 M11.97,0C5.352,0,0,5.352,0,11.97
			c0,6.619,5.352,11.97,11.97,11.97c6.614,0,11.967-5.351,11.967-11.97C23.937,5.352,18.584,0,11.97,0L11.97,0z"/>
	</g>
	<path fill="#1b74ff" d="M15.006,11.994h-1.99v7.077h-2.947v-7.077H8.672V9.501h1.396V7.885c0-1.158,0.543-2.971,2.975-2.971h2.187
		v2.424h-1.575c-0.266,0-0.639,0.133-0.639,0.679v1.464h2.255L15.006,11.994z"/>
</g>
</svg>
