<?xml version="1.0" encoding="utf-8"?>
<!-- Generator: Adobe Illustrator 16.0.0, SVG Export Plug-In . SVG Version: 6.00 Build 0)  -->
<!DOCTYPE svg PUBLIC "-//W3C//DTD SVG 1.1//EN" "http://www.w3.org/Graphics/SVG/1.1/DTD/svg11.dtd">
<svg version="1.1" id="Layer_1" xmlns="http://www.w3.org/2000/svg" xmlns:xlink="http://www.w3.org/1999/xlink" x="0px" y="0px"
	 width="24px" height="24px" viewBox="0 0 24 24" enable-background="new 0 0 24 24" xml:space="preserve">
<g>
	<g>
		<path fill="#FFFFFF" d="M12.001,2.041c5.5,0,9.953,4.486,9.953,9.959s-4.479,9.946-9.953,9.946S2.049,17.474,2.049,12
			S6.528,2.041,12.001,2.041 M12.001,0.095C5.42,0.095,0.093,5.419,0.093,12c0,6.581,5.328,11.905,11.909,11.905
			c6.581,0,11.906-5.324,11.906-11.905C23.934,5.419,18.582,0.095,12.001,0.095L12.001,0.095z"/>
	</g>
	<g>
		<path fill="#FFFFFF" d="M16.853,5.96H7.177c-0.676,0-1.216,0.541-1.216,1.216v9.649c0,0.676,0.541,1.215,1.216,1.215h9.675
			c0.669,0,1.217-0.539,1.217-1.215V7.149C18.042,6.5,17.501,5.96,16.853,5.96L16.853,5.96z M12.001,9.582
			c1.325,0,2.413,1.095,2.413,2.419c0,1.325-1.088,2.405-2.413,2.405c-1.324,0-2.412-1.08-2.412-2.405
			C9.589,10.676,10.677,9.582,12.001,9.582L12.001,9.582z M7.481,16.825c-0.176,0-0.304-0.135-0.304-0.311v-5.122h1.257
			C8.373,11.568,8.373,11.825,8.373,12c0,2,1.628,3.622,3.628,3.622c2,0,3.628-1.621,3.628-3.622c0-0.176,0-0.419-0.061-0.608h1.257
			v5.122c0,0.176-0.129,0.311-0.305,0.311H7.481z M16.853,8.676c0,0.176-0.135,0.297-0.311,0.297h-1.216
			c-0.176,0-0.305-0.122-0.305-0.297V7.46c0-0.176,0.129-0.311,0.305-0.311h1.216c0.176,0,0.311,0.135,0.311,0.311V8.676z"/>
	</g>
</g>
</svg>
